# xmcd
#
# Track frame offsets: 
#        150
#        16990
#        30985
#        45502
#        62160
#        76040
#        93482
#        114130
#        129457
#        145885
#        162535
#        176322
#        192557
#        208595
#
# Disc length: 3024 seconds
#
# Revision: 0
# Processed by: cddbd v1.5.2PL0 Copyright (c) Steve Scherf et al.
# Submitted via: ExactAudioCopyFreeDBPlugin 1.0
#
DISCID=b00bce0e
DTITLE=Chris '4er' Peterka - Hard Times
DYEAR=1996
DGENRE=Blues
TTITLE0=Where Can I Stay
TTITLE1=Ryland
TTITLE2=Let Me Stand In Your Shadow
TTITLE3=Hey Judy
TTITLE4=Narrow Minded Blues
TTITLE5=Come On In My Chicken
TTITLE6=City Of New Orleans
TTITLE7=Where Have I Been Sleeping
TTITLE8=No Chance To Dry
TTITLE9=He Was A Fried Of Mine
TTITLE10=Hard Times
TTITLE11=Alimony
TTITLE12=Empty Without You
TTITLE13=Can't Come In
EXTD=
EXTT0=
EXTT1=
EXTT2=
EXTT3=
EXTT4=
EXTT5=
EXTT6=
EXTT7=
EXTT8=
EXTT9=
EXTT10=
EXTT11=
EXTT12=
EXTT13=
PLAYORDER=
